DataType=double
version=3
OpenSimVersion=4.5-2023-11-26-efcdfd3eb
endheader
time	EMG01_right_gast_med	EMG02_right_glut_max	EMG03_left_gast_med	EMG04_left_glut_max	EMG05_right_glut_med	EMG06_right_bic_fem	EMG07_right_rect_fem	EMG08_right_vast_lat	EMG09_right_vast_med	EMG10_right_tens_fasc_lat	EMG11_left_glut_med	EMG12_left_bic_fem	EMG13_left_rect_fem	EMG14_left_vast_lat	EMG15_left_vast_med	EMG16_left_tens_fasc_lat
1.38	0.02360913311740565	0.06725591415771927	0.3854727065833359	0.01820824690823543	0.03579566496797307	0.1418742170817552	0.04342986055509741	0.02119008096462553	0.01716946406988471	0.02600459660493692	0.0984849917634235	0.02767304767711569	0.04845160073536396	0.01268177963883866	0.02852095970951305	0.0795545937303675
1.39	0.02554612444130121	0.0645219434050771	0.396167320359941	0.01690585073324943	0.03782953524975628	0.1493842666066732	0.04720194008441485	0.02250669182012017	0.01911707762607518	0.02844651126119918	0.09496648164773457	0.02886463498647847	0.04856444014679463	0.01247339375190925	0.02611394182665033	0.06714493159710698
1.4	0.02742818703752749	0.06232849173117028	0.4051880255324739	0.01578090208521312	0.04032488506283074	0.156862997313023	0.05112165654950784	0.0238668272176079	0.02121868057599153	0.03166323787321657	0.09148945868080954	0.02997197332687483	0.04865530064951599	0.01247157338704961	0.02398282470522875	0.05552708469392647
1.41	0.0292710870987044	0.06068976231496475	0.412394824411303	0.0148531453368507	0.04323092242881485	0.1642573910472837	0.05515133279716007	0.025255196750803	0.02345976642060057	0.0356207267372709	0.08806723811709202	0.03096954491292575	0.04871316985309673	0.01265771249588226	0.02212728711212414	0.0447550847475895
1.42	0.03109256718840719	0.05961197383449592	0.4176693410367981	0.01414101756305216	0.04649221452701901	0.1715115811621172	0.05925044550647851	0.02665576036607995	0.02582380249702004	0.04027568200642752	0.08471290957312261	0.03183454845040815	0.04872724862881442	0.01301230072515721	0.02054423744175485	0.03487256000256818
1.43	0.03291192153584909	0.05909338961483111	0.4209174428667175	0.01366135910256207	0.05004950216408169	0.1785672965591579	0.06337612228169687	0.02805194051134043	0.02829239452294444	0.04557588406442963	0.0814390792228028	0.03254719124033452	0.04868705453067052	0.0135151746436553	0.01922792508688148	0.02591286746905264
1.44	0.03474958843863603	0.05912444744896445	0.4220713832663841	0.01342913255551644	0.05384056389395669	0.1853644002929075	0.06748369656016047	0.02942684672724264	0.03084547922849012	0.05146062755005736	0.07825761176685538	0.03309092570651078	0.04858252232782798	0.01414575976442831	0.0181700705180703	0.01789936394605714
1.45	0.03662676616002957	0.05968798766310071	0.4210914117359514	0.01345715459241673	0.05780111825526184	0.1918415273635212	0.07152731216399916	0.03076351116738353	0.03346154336065711	0.05786127747593241	0.07517938130868843	0.03345262454951942	0.04840410592715813	0.01488330100858017	0.01736001270100361	0.01084579936197765
1.46	0.03856505823205825	0.06075957662316136	0.4179668129706449	0.01375584499623852	0.06186575175431949	0.1979368256542815	0.07546056867378317	0.03204513306624747	0.03611786714333189	0.06470194518889949	0.07221404042291986	0.03362269026907615	0.04814288504597381	0.01570707952320218	0.01678487259331763	0.004756814460418119
1.47	0.04058615346692167	0.06230792245593562	0.4127163417305269	0.01433299747491685	0.06596885930774048	0.2035888002047542	0.0792371987651229	0.03325532926296484	0.03879078995232797	0.07190028468972039	0.06936981641379819	0.03359509728215369	0.04779067850616198	0.01659661453035987	0.01642973172355221	-0.0003714761847618933
1.48	0.04271154520623818	0.06429537884650023	0.4053880221893261	0.01519357687020466	0.07004558314984405	0.2087372544663355	0.08281176877980627	0.03437838683102649	0.04145599545286739	0.07936840807605905	0.06665334289783703	0.03336736793625554	0.04734016457914156	0.0175318499533845	0.01627782508053956	-0.004550835307993
1.49	0.04496229341146345	0.06667853138017002	0.3960582868843462	0.01633954735563603	0.07403273597185012	0.2133243139163106	0.08614039373107396	0.03539951298930429	0.04408881267912929	0.08701391665147942	0.06406953358969916	0.0329404868600359	0.04678500798015607	0.01849332650004326	0.01631074760791023	-0.007800207453966494
